
<svg version="1.1" id="Layer_1" xmlns="http://www.w3.org/2000/svg" xmlns:xlink="http://www.w3.org/1999/xlink" x="0px" y="0px"
	 viewBox="0 0 1189.52 196.78" style="enable-background:new 0 0 1189.52 196.78;" xml:space="preserve">
<style type="text/css">
	.st0{fill:#FFFFFF;}
	.st1{fill:#00ff99;}
	.st2{fill:#00ff99;}
</style>
<g>
	<g>
		<path class="st0" d="M285.28,43.7h11.56v99.38h61.25v10h-72.81V43.7z"/>
		<path class="st0" d="M402.31,43.7h11.56v109.38h-11.56V43.7z"/>
		<path class="st0" d="M495.75,53.7h-38.44v-10h88.44v10h-38.44v99.38h-11.56V53.7z"/>
		<path class="st0" d="M584.35,43.7h25.31v88.75h54.85v20.63h-80.16V43.7z"/>
		<path class="st0" d="M703.72,43.7h25.31v109.38h-25.31V43.7z"/>
		<path class="st0" d="M880.29,43.7v109.38h-20.78l-54.53-66.41v66.41h-25V43.7h20.94l54.38,66.41V43.7H880.29z"/>
		<path class="st0" d="M1005.14,96.67h23.13v44.38c-5.94,4.48-12.81,7.92-20.63,10.31c-7.81,2.4-15.68,3.59-23.59,3.59
			c-11.36,0-21.56-2.42-30.63-7.27c-9.06-4.84-16.17-11.56-21.33-20.16c-5.16-8.59-7.73-18.31-7.73-29.14
			c0-10.83,2.58-20.55,7.73-29.14c5.16-8.59,12.32-15.31,21.49-20.16c9.17-4.84,19.48-7.27,30.94-7.27c9.58,0,18.28,1.62,26.09,4.84
			c7.81,3.23,14.38,7.92,19.69,14.06l-16.25,15c-7.81-8.23-17.24-12.34-28.28-12.34c-6.98,0-13.18,1.46-18.59,4.38
			c-5.42,2.92-9.64,7.03-12.66,12.34c-3.02,5.31-4.53,11.41-4.53,18.28c0,6.77,1.51,12.81,4.53,18.13
			c3.02,5.31,7.21,9.45,12.58,12.42c5.36,2.97,11.49,4.45,18.36,4.45c7.29,0,13.85-1.56,19.69-4.69V96.67z"/>
		<path class="st0" d="M1098.97,147.61c-9.12-4.9-16.25-11.64-21.41-20.23c-5.16-8.59-7.73-18.26-7.73-28.99
			c0-10.73,2.58-20.39,7.73-28.99c5.16-8.59,12.29-15.34,21.41-20.24c9.11-4.9,19.35-7.34,30.7-7.34c11.35,0,21.56,2.45,30.63,7.34
			c9.06,4.9,16.2,11.64,21.41,20.24c5.21,8.59,7.81,18.26,7.81,28.99c0,10.73-2.61,20.39-7.81,28.99
			c-5.21,8.59-12.34,15.34-21.41,20.23c-9.06,4.9-19.27,7.34-30.63,7.34C1118.32,154.95,1108.08,152.51,1098.97,147.61z
			 M1147.17,128.94c5.21-2.97,9.3-7.11,12.27-12.42c2.97-5.31,4.45-11.35,4.45-18.13c0-6.77-1.48-12.81-4.45-18.13
			c-2.97-5.31-7.06-9.45-12.27-12.42c-5.21-2.97-11.04-4.45-17.5-4.45c-6.46,0-12.29,1.48-17.5,4.45
			c-5.21,2.97-9.3,7.11-12.27,12.42c-2.97,5.31-4.45,11.36-4.45,18.13c0,6.77,1.48,12.81,4.45,18.13
			c2.97,5.31,7.06,9.45,12.27,12.42c5.21,2.97,11.04,4.45,17.5,4.45C1136.13,133.39,1141.96,131.91,1147.17,128.94z"/>
	</g>
	<polygon class="st1" points="140.7,56.05 140.7,84.08 120.87,84.08 112.69,89.2 112.69,56.05 	"/>
	<polygon class="st2" points="84.44,28.02 84.44,0 0,0 0,28.02 0,28.02 0,196.78 22.19,196.78 22.19,196.78 84.44,196.78 
		84.44,168.75 28.01,168.75 28.01,28.02 	"/>
	<polygon class="st2" points="112.45,0 112.45,28.02 168.71,28.02 168.71,168.75 112.45,168.75 112.45,196.78 196.72,196.78 
		196.72,180.43 196.72,168.75 196.72,28.02 196.72,16.35 196.72,0 	"/>
	<polygon class="st0" points="140.7,112.29 140.7,140.73 56.02,140.73 56.02,56.05 84.47,56.05 84.47,112.29 	"/>
</g>
</svg>
