<svg preserveAspectRatio="xMidYMid meet" data-bbox="1.499 10.484 140.999 13" xmlns="http://www.w3.org/2000/svg" viewBox="1.499 10.484 140.999 13" height="33" width="143" data-type="color" role="img" aria-label="Melst Studio Logo">
    <g>
        <g clip-path="url(#dd4550f8-a5e3-4d27-8b1d-49b074c32d3c_comp-lrrxkl0b)">
            <path fill="#FFFFFF" d="M4.52 15.856v5.364c0 .829-.676 1.502-1.511 1.502-.834 0-1.51-.672-1.51-1.503v-5.363h3.02Z" data-color="1"></path>
            <path fill="#FFFFFF" d="m11.025 12.16-1.516 3.696c0-.245-.038-.477-.108-.696-.834-2.612-4.879-1.98-4.881.696 0 .83-.677 1.503-1.511 1.503-.834 0-1.51-.673-1.51-1.503-.001-1.969 1.097-3.737 2.805-4.676a5.631 5.631 0 0 1 2.721-.696c1.555 0 2.983.628 4 1.676Z" data-color="2"></path>
            <path fill="#FFFFFF" d="M20.54 15.856v5.377a1.506 1.506 0 0 1-1.51 1.498c-.833 0-1.509-.67-1.511-1.498v-5.377h3.022Z" data-color="3"></path>
            <path fill="#FFFFFF" d="M20.54 15.855v.001c0 .83-.675 1.503-1.51 1.503-.418 0-.795-.168-1.068-.44a1.495 1.495 0 0 1-.443-1.063c0-.245-.038-.477-.108-.696-.836-2.617-4.879-1.975-4.881.696l-1.505-3.696a5.59 5.59 0 0 1 4.01-1.676c3.054 0 5.506 2.409 5.506 5.37Z" data-color="4"></path>
            <path fill="#FFFFFF" d="M12.53 15.856v5.377a1.506 1.506 0 0 1-1.51 1.498c-.832 0-1.509-.67-1.511-1.498v-5.377a5.238 5.238 0 0 1 .957-3.023 5.43 5.43 0 0 1 .559-.673 5.289 5.289 0 0 1 1.505 3.696Z" data-color="5"></path>
            <path fill="#FFFFFF" d="M30.84 19.157c0 2.102-1.652 3.831-4.479 3.831-1.625 0-2.937-.482-4.255-1.31a1.5 1.5 0 0 1 .649-2.859c.303 0 .585.09.821.242l.007-.01c.843.55 1.659.933 2.778.933.67 0 1.458-.163 1.458-.828h3.021Z" data-color="2"></path>
            <path fill="#FFFFFF" d="M30.84 19.157c0 .829-.677 1.501-1.51 1.501a1.507 1.507 0 0 1-1.511-1.502.381.381 0 0 0-.017-.132c-.174-.466-1.699-.82-2.18-.92-2.17-.49-4.014-1.555-4.02-3.757l3.021-.01c0 .062.009.084.015.102.088.22.613.435.839.515.985.345 5.3.744 5.362 4.125l.001.078Z" data-color="6"></path>
            <path fill="#FFFFFF" d="M30.323 12.837c0 .83-.676 1.502-1.51 1.502h-.005c-.238 0-.459-.068-.685-.166-.568-.242-1.18-.664-2.23-.664-1.204 0-1.27.409-1.27.825v.004c.012.774-.637 1.492-1.5 1.499h-.01a1.506 1.506 0 0 1-1.51-1.49v-.034c0-3.286 3.35-4.517 6.484-3.43.492.172.954.382 1.38.6a1.5 1.5 0 0 1 .855 1.354Z" data-color="7"></path>
            <path fill="#FFFFFF" d="M28.808 14.34a1.513 1.513 0 0 1-.685-.167c.226.098.447.165.685.166Z" data-color="7"></path>
        </g>
        <path fill="#FFFFFF" d="m52.388 12.643-4.102 5.591a.426.426 0 0 1-.367.2h-.038c-.165 0-.292-.055-.385-.2l-4.101-5.574V23a.443.443 0 0 1-.44.431.445.445 0 0 1-.457-.431V11.348a.4.4 0 0 1 .182-.34c0-.018.018-.018.038-.038a.465.465 0 0 1 .622.108l4.558 6.205 4.542-6.205c.127-.199.422-.233.622-.108a.824.824 0 0 1 .127.145.558.558 0 0 1 .072.233v11.65a.443.443 0 0 1-.44.432.43.43 0 0 1-.439-.431V12.64l.006.002Z" data-color="8"></path>
        <path fill="#FFFFFF" d="M57.111 19.044c0-2.446 1.941-4.423 4.357-4.423 2.415 0 4.136 1.798 4.321 4.1v.07c0 .233-.202.395-.44.395h-7.358c.092 1.923 1.628 3.38 3.48 3.38 1.189 0 2.288-.61 2.892-1.599a.433.433 0 0 1 .587-.145c.203.145.275.395.148.611a4.295 4.295 0 0 1-3.624 1.997c-2.416 0-4.357-1.977-4.357-4.386h-.006Zm7.727-.702c-.293-1.653-1.721-2.858-3.37-2.858-1.65 0-3.095 1.188-3.425 2.858h6.795Z" data-color="8"></path>
        <path fill="#FFFFFF" d="M69.029 11.277c0-.233.202-.432.44-.432.257 0 .457.199.457.432v11.724a.447.447 0 0 1-.457.432.443.443 0 0 1-.44-.432V11.277Z" data-color="8"></path>
        <path fill="#FFFFFF" d="M76.59 15.053c0 .215-.22.431-.44.431h-1.154v6.42c0 .433.44.649.66.649.22 0 .457.232.457.448s-.237.432-.457.432c-.897 0-1.574-.648-1.574-1.528v-6.42h-1.116c-.44 0-.44-.216-.44-.432s0-.432.44-.432h1.116v-3.273c0-.216.22-.432.44-.432.237 0 .477.216.477.432v3.273h1.154c.22 0 .437.216.437.432Z" data-color="8"></path>
        <path fill="#FFFFFF" d="M86.072 20.303a.967.967 0 0 1 1.337-.125c.807.647 2.198 1.403 3.497 1.383.917 0 1.738-.27 2.288-.665.55-.395.787-.843.787-1.295 0-.233-.055-.395-.165-.577a1.713 1.713 0 0 0-.55-.54c-.532-.34-1.429-.647-2.508-.843h-.037c-.86-.162-1.667-.378-2.36-.702-.698-.324-1.3-.773-1.705-1.403a2.723 2.723 0 0 1-.422-1.475c0-1.08.622-2.014 1.464-2.625.859-.61 1.978-.952 3.167-.952 1.759 0 3.058.844 3.992 1.438.422.287.55.864.257 1.275a.934.934 0 0 1-1.298.27c-.935-.61-1.831-1.15-2.948-1.15-.824 0-1.556.253-2.05.61-.495.361-.698.756-.698 1.134 0 .216.038.36.127.503.09.142.258.307.495.469.477.324 1.299.61 2.288.79h.038c.934.178 1.793.414 2.525.755.75.36 1.409.827 1.83 1.492.276.431.44.971.44 1.528 0 1.15-.659 2.14-1.573 2.787-.897.648-2.089 1.025-3.387 1.025-1.979-.017-3.645-.988-4.686-1.798a.947.947 0 0 1-.148-1.312l.003.003Z" data-color="8"></path>
        <path fill="#FFFFFF" d="M102.514 15.43c0 .54-.478.989-1.024.989h-.457v5.017a.998.998 0 0 1 1.006 1.006.984.984 0 0 1-1.006.988c-1.117 0-2.034-.897-2.034-1.997v-5.017h-.532a.995.995 0 0 1-1.007-.988c0-.54.44-.99 1.007-.99h.532v-2.607c0-.557.457-.989 1.024-.989a.984.984 0 0 1 1.007.989v2.608h.457c.549 0 1.024.432 1.024.989l.003.002Z" data-color="8"></path>
        <path fill="#FFFFFF" d="M109.343 23.43c-2.088 0-3.807-1.69-3.807-3.738v-4.299c0-.502.44-.951.969-.951.53 0 .969.449.969.951v4.299c0 1.025.825 1.835 1.869 1.835s1.903-.81 1.924-1.835v-4.299a.95.95 0 0 1 .951-.951c.512 0 .99.449.99.951v4.299c0 2.05-1.759 3.738-3.865 3.738Z" data-color="8"></path>
        <path fill="#FFFFFF" d="M125.232 22.459c0 .523-.44.971-.989.971a.978.978 0 0 1-.969-.772 4.516 4.516 0 0 1-2.491.772c-2.47 0-4.449-2.05-4.449-4.477 0-2.426 1.979-4.514 4.449-4.514.897 0 1.776.287 2.453.756v-3.381c0-.523.44-.972 1.007-.972s.989.45.989.972v10.645Zm-4.449-6.06c-.659 0-1.264.27-1.721.736-.457.449-.732 1.096-.732 1.815 0 .719.275 1.33.732 1.782a2.383 2.383 0 0 0 1.721.735c.66 0 1.264-.27 1.721-.735a2.508 2.508 0 0 0 .732-1.782c0-.718-.275-1.366-.732-1.815a2.354 2.354 0 0 0-1.721-.736Z" data-color="8"></path>
        <path fill="#FFFFFF" d="M131.017 12.192a.98.98 0 0 1-.989.988.98.98 0 0 1-.989-.988v-.378c0-.54.439-.972.989-.972s.989.432.989.972v.378Zm0 3.255v7.012c0 .54-.422.971-.989.971a.965.965 0 0 1-.989-.971v-7.012c0-.576.439-.988.989-.988a.97.97 0 0 1 .989.988Z" data-color="8"></path>
        <path fill="#FFFFFF" d="M135.009 22.118c-.787-.793-1.264-1.906-1.264-3.165 0-1.258.477-2.284 1.264-3.148.825-.843 1.886-1.366 3.15-1.366s2.308.523 3.058 1.366c.824.864 1.281 1.924 1.281 3.148 0 1.225-.457 2.372-1.281 3.165a4.084 4.084 0 0 1-3.058 1.366c-1.209 0-2.325-.522-3.15-1.366Zm.732-3.165c0 .773.237 1.404.659 1.906.457.432 1.062.665 1.759.665.642 0 1.227-.233 1.684-.665.457-.503.714-1.133.714-1.906 0-.773-.257-1.383-.714-1.87-.457-.394-1.045-.684-1.684-.684-.697 0-1.299.287-1.759.685-.422.486-.659 1.133-.659 1.87Z" data-color="8"></path>
        <defs fill="none">
            <clipPath id="dd4550f8-a5e3-4d27-8b1d-49b074c32d3c_comp-lrrxkl0b">
                <path fill="#ffffff" d="M32.498 8.484v16a8 8 0 0 1-8 8h-16a8 8 0 0 1-8-8v-16a8 8 0 0 1 8-8h16a8 8 0 0 1 8 8z"></path>
            </clipPath>
        </defs>
    </g>
</svg>